HIERARCHY
ROOT joint_Root
{
	OFFSET 0.0 0.0 0.0
	CHANNELS 6 Xposition Yposition Zposition Zrotation Xrotation Yrotation 
	JOINT Hips
	{
		OFFSET -17.1583 93.1646 452.98
		CHANNELS 6 Xposition Yposition Zposition Zrotation Xrotation Yrotation 
		JOINT Spine
		{
			OFFSET 15.7357 0.0 0.0
			CHANNELS 6 Xposition Yposition Zposition Zrotation Xrotation Yrotation 
			JOINT Chest
			{
				OFFSET 8.98455 -0.406207 0.0
				CHANNELS 6 Xposition Yposition Zposition Zrotation Xrotation Yrotation 
				JOINT Neck
				{
					OFFSET 16.3773 0.0 0.0
					CHANNELS 6 Xposition Yposition Zposition Zrotation Xrotation Yrotation 
					JOINT Head
					{
						OFFSET 6.45672 0.0 0.0
						CHANNELS 6 Xposition Yposition Zposition Zrotation Xrotation Yrotation 
						End Site
						{
							OFFSET 0.0 0.0 0.0
						}
					}
				}
				JOINT Shoulder_L
				{
					OFFSET 12.9942 -0.242716 4.98039
					CHANNELS 6 Xposition Yposition Zposition Zrotation Xrotation Yrotation 
					JOINT UpperArm_L
					{
						OFFSET 5.34809 0.0 0.0
						CHANNELS 6 Xposition Yposition Zposition Zrotation Xrotation Yrotation 
						JOINT LowerArm_L
						{
							OFFSET 24.3286 1.87007e-05 0.0
							CHANNELS 6 Xposition Yposition Zposition Zrotation Xrotation Yrotation 
							JOINT Hand_L
							{
								OFFSET 22.2916 0.0 0.0
								CHANNELS 6 Xposition Yposition Zposition Zrotation Xrotation Yrotation 
								End Site
								{
									OFFSET 0.0 0.0 0.0
								}
							}
						}
					}
				}
				JOINT Shoulder_R
				{
					OFFSET 12.9945 -0.242716 -4.98039
					CHANNELS 6 Xposition Yposition Zposition Zrotation Xrotation Yrotation 
					JOINT UpperArm_R
					{
						OFFSET -5.34813 0.0 0.0
						CHANNELS 6 Xposition Yposition Zposition Zrotation Xrotation Yrotation 
						JOINT LowerArm_R
						{
							OFFSET -24.3289 0.000322201 0.0
							CHANNELS 6 Xposition Yposition Zposition Zrotation Xrotation Yrotation 
							JOINT Hand_R
							{
								OFFSET -22.2915 -0.000108084 0.0
								CHANNELS 6 Xposition Yposition Zposition Zrotation Xrotation Yrotation 
								End Site
								{
									OFFSET 0.0 0.0 0.0
								}
							}
						}
					}
				}
			}
		}
		JOINT UpperLeg_L
		{
			OFFSET -2.19248 -6.46944 0.0
			CHANNELS 6 Xposition Yposition Zposition Zrotation Xrotation Yrotation 
			JOINT LowerLeg_L
			{
				OFFSET 39.0811 0.0 -1.23785e-05
				CHANNELS 6 Xposition Yposition Zposition Zrotation Xrotation Yrotation 
				JOINT Foot_L
				{
					OFFSET 40.9854 0.0 -1.26872e-05
					CHANNELS 6 Xposition Yposition Zposition Zrotation Xrotation Yrotation 
					JOINT Toes_L
					{
						OFFSET 11.7543 0.0 0.0
						CHANNELS 6 Xposition Yposition Zposition Zrotation Xrotation Yrotation 
						End Site
						{
							OFFSET 0.0 0.0 0.0
						}
					}
				}
			}
		}
		JOINT UpperLeg_R
		{
			OFFSET -2.19251 6.46944 0.0
			CHANNELS 6 Xposition Yposition Zposition Zrotation Xrotation Yrotation 
			JOINT LowerLeg_R
			{
				OFFSET -39.0811 -0.00228153 -0.0401928
				CHANNELS 6 Xposition Yposition Zposition Zrotation Xrotation Yrotation 
				JOINT Foot_R
				{
					OFFSET -40.9854 0.0 0.0
					CHANNELS 6 Xposition Yposition Zposition Zrotation Xrotation Yrotation 
					JOINT Toes_R
					{
						OFFSET -11.7543 0.0 0.0
						CHANNELS 6 Xposition Yposition Zposition Zrotation Xrotation Yrotation 
						End Site
						{
							OFFSET 0.0 0.0 0.0
						}
					}
				}
			}
		}
	}
}
MOTION
Frames:	4
Frame Time:	0.0333333
0.000000 0.000000 0.000000 0.000000 0.000000 -0.000000 -3.193010 93.199700 -1.453030 87.987600 5.331950 2.376840 15.735700 0.000005 -0.000001 63.102800 85.805900 -60.144000 8.984550 -0.406207 -0.000000 -0.173816 -3.998740 5.910010 16.377300 -0.000001 -0.000001 3.538580 1.255230 0.889251 6.456720 -0.000001 -0.000000 -12.633400 2.653530 0.150313 12.994200 -0.242716 4.980390 -93.337900 9.940520 -71.331800 5.348090 -0.000007 -0.000001 -73.909000 16.084800 1.140800 24.328600 0.000019 0.000005 10.920800 25.524100 -24.122000 22.291600 -0.000001 0.000005 -5.669010 5.151180 3.913690 12.994500 -0.242716 -4.980390 87.822800 5.457260 -68.210700 -5.348130 -0.000001 -0.000004 -62.856300 21.220600 -8.567430 -24.328900 0.000322 -0.000009 -0.417826 -1.413120 -16.471100 -22.291500 -0.000108 -0.000004 -15.670400 5.105320 4.990290 -2.192480 -6.469440 -0.000000 -171.504000 -10.920900 -1.687780 39.081100 -0.000007 -0.000012 -0.011406 0.040519 15.720500 40.985400 -0.000006 -0.000013 -1.741180 18.439800 -66.738100 11.754300 -0.000000 0.000003 -0.001499 0.189881 -8.873740 -2.192510 6.469440 -0.000001 178.736000 13.319900 -178.475000 -39.081100 -0.002282 -0.040193 0.030294 -0.114275 13.275100 -40.985400 0.000008 0.000006 -3.364780 7.072990 -68.075600 -11.754300 -0.000006 -0.000006 -0.008470 0.259497 -6.033670
0.000000 0.000000 0.000000 0.000000 0.000000 -0.000000 -2.991470 93.224300 -1.212150 88.034800 5.597090 1.963300 15.735700 0.000005 -0.000001 58.967700 85.815400 -55.919100 8.984550 -0.406207 -0.000000 -0.465759 -4.532380 6.078060 16.377300 -0.000001 -0.000001 2.725950 1.261580 0.946047 6.456720 -0.000001 -0.000000 -13.151100 3.365440 -0.732756 12.994200 -0.242716 4.980390 -93.359800 10.156600 -71.586300 5.348090 -0.000007 -0.000001 -72.933600 13.635000 1.968290 24.328600 0.000019 0.000005 10.817200 25.349300 -24.050500 22.291600 -0.000001 0.000005 -6.418240 5.165380 3.572850 12.994500 -0.242716 -4.980390 87.704700 5.556510 -67.512900 -5.348130 -0.000001 -0.000004 -62.315400 9.953680 -9.831490 -24.328900 0.000322 -0.000009 -1.512900 -6.911320 -12.388200 -22.291500 -0.000108 -0.000004 -16.359000 5.100310 5.106490 -2.192480 -6.469440 -0.000000 -171.696000 -11.104900 -1.800930 39.081100 -0.000007 -0.000012 -0.009216 0.033419 15.416100 40.985400 -0.000006 -0.000013 -1.586030 18.841600 -66.824900 11.754300 -0.000000 0.000003 -0.001307 0.187299 -8.978690 -2.192510 6.469440 -0.000001 178.463000 14.066900 -178.391000 -39.081100 -0.002282 -0.040193 0.022514 -0.085032 12.710700 -40.985400 0.000008 0.000006 -3.941590 7.680350 -67.722500 -11.754300 -0.000006 -0.000006 -0.008571 0.260298 -6.000960
0.000000 0.000000 0.000000 0.000000 0.000000 -0.000000 -2.765890 93.253900 -0.915066 88.021000 5.923410 1.427130 15.735700 0.000005 -0.000001 54.980800 85.909100 -51.913700 8.984550 -0.406207 -0.000000 -0.926155 -4.926590 6.094720 16.377300 -0.000001 -0.000001 1.768670 1.187250 0.969857 6.456720 -0.000001 -0.000000 -13.553300 3.914990 -1.527260 12.994200 -0.242716 4.980390 -93.357200 10.313100 -71.857800 5.348090 -0.000007 -0.000001 -71.344300 12.360300 2.527610 24.328600 0.000019 0.000005 10.751700 25.711900 -23.638100 22.291600 -0.000001 0.000005 -6.013820 5.158360 3.742450 12.994500 -0.242716 -4.980390 87.769200 5.260870 -66.982200 -5.348130 -0.000001 -0.000004 -61.954200 -4.509140 -11.381700 -24.328900 0.000322 -0.000009 -1.894520 -14.133800 -7.715740 -22.291500 -0.000108 -0.000004 -15.192800 5.050720 6.221170 -2.192480 -6.469440 -0.000000 -171.824000 -11.581200 -2.032350 39.081100 -0.000007 -0.000012 -0.008989 0.033236 15.133000 40.985400 -0.000006 -0.000013 -1.384000 19.552500 -67.010900 11.754300 -0.000000 0.000003 -0.001587 0.191046 -8.826350 -2.192510 6.469440 -0.000001 178.236000 15.073500 -178.255000 -39.081100 -0.002282 -0.040193 0.013099 -0.046520 11.853400 -40.985400 0.000008 0.000006 -4.660260 8.423470 -67.100000 -11.754300 -0.000006 -0.000006 -0.008488 0.259638 -6.027920
0.000000 0.000000 0.000000 0.000000 0.000000 -0.000000 -2.555130 93.301700 -0.608414 88.005200 6.429630 0.555610 15.735700 0.000005 -0.000001 50.724000 86.182100 -47.801700 8.984550 -0.406207 -0.000000 -1.720960 -5.074480 5.770060 16.377300 -0.000001 -0.000001 0.624706 0.994488 0.934010 6.456720 -0.000001 -0.000000 -13.927400 3.995010 -1.892270 12.994200 -0.242716 4.980390 -93.315400 10.304200 -72.055300 5.348090 -0.000007 -0.000001 -69.408400 10.275200 2.732340 24.328600 0.000019 0.000005 10.714300 26.652200 -22.870400 22.291600 -0.000001 0.000005 -5.312070 5.138290 4.221430 12.994500 -0.242716 -4.980390 87.861800 4.915990 -66.457800 -5.348130 -0.000001 -0.000004 -60.738200 -19.754800 -13.706100 -24.328900 0.000322 -0.000009 -0.696378 -17.697800 -2.289010 -22.291500 -0.000108 -0.000004 -12.822500 5.035910 6.545940 -2.192480 -6.469440 -0.000000 -172.012000 -12.176300 -2.542390 39.081100 -0.000007 -0.000012 -0.007779 0.029688 14.681500 40.985400 -0.000006 -0.000013 -1.212160 20.408100 -67.199300 11.754300 -0.000000 0.000003 -0.001854 0.194508 -8.685610 -2.192510 6.469440 -0.000001 178.133000 16.064600 -178.264000 -39.081100 -0.002282 -0.040193 0.004288 -0.005066 10.622800 -40.985400 0.000008 0.000006 -5.572430 8.997620 -66.288500 -11.754300 -0.000006 -0.000006 -0.008508 0.259797 -6.021440
